<svg xmlns="http://www.w3.org/2000/svg" width="99" height="104" viewBox="0 0 99 104" fill="none">
  <g clip-path="url(#clip0_1_31)">
    <rect width="99" height="104" fill="white"/>
    <path d="M90.5 44.5C90.5 68.314 72.0794 87.5 49.5 87.5C26.9206 87.5 8.5 68.314 8.5 44.5C8.5 20.686 26.9206 1.5 49.5 1.5C72.0794 1.5 90.5 20.686 90.5 44.5Z" stroke="black" stroke-width="3"/>
    <path d="M87.5 54.5C87.5 76.0747 70.4517 93.5 49.5 93.5C28.5483 93.5 11.5 76.0747 11.5 54.5C11.5 32.9253 28.5483 15.5 49.5 15.5C70.4517 15.5 87.5 32.9253 87.5 54.5Z" fill="white" stroke="black" stroke-width="3"/>
    <ellipse cx="38" cy="53.5" rx="12" ry="13.5" fill="white" stroke="black" stroke-width="3"/>
    <ellipse cx="61" cy="53.5" rx="12" ry="13.5" fill="white" stroke="black" stroke-width="3"/>
    <path d="M42.5 54.5C42.5 55.6577 42.1863 56.6832 41.7053 57.4046C41.222 58.1296 40.6092 58.5 40 58.5C39.3908 58.5 38.778 58.1296 38.2947 57.4046C37.8137 56.6832 37.5 55.6577 37.5 54.5C37.5 53.3423 37.8137 52.3168 38.2947 51.5954C38.778 50.8704 39.3908 50.5 40 50.5C40.6092 50.5 41.222 50.8704 41.7053 51.5954C42.1863 52.3168 42.5 53.3423 42.5 54.5Z" fill="black" stroke="black"/>
    <path d="M61.5 54.5C61.5 55.6577 61.1863 56.6832 60.7053 57.4046C60.222 58.1296 59.6092 58.5 59 58.5C58.3908 58.5 57.778 58.1296 57.2947 57.4046C56.8137 56.6832 56.5 55.6577 56.5 54.5C56.5 53.3423 56.8137 52.3168 57.2947 51.5954C57.778 50.8704 58.3908 50.5 59 50.5C59.6092 50.5 60.222 50.8704 60.7053 51.5954C61.1863 52.3168 61.5 53.3423 61.5 54.5Z" fill="black" stroke="black"/>
    <path d="M77.5 83.5C77.5 88.5321 74.5666 93.2456 69.5037 96.7639C64.4462 100.278 57.3785 102.5 49.5 102.5C41.6215 102.5 34.5538 100.278 29.4963 96.7639C24.4334 93.2456 21.5 88.5321 21.5 83.5C21.5 78.4679 24.4334 73.7544 29.4963 70.2361C34.5538 66.7216 41.6215 64.5 49.5 64.5C57.3785 64.5 64.4462 66.7216 69.5037 70.2361C74.5666 73.7544 77.5 78.4679 77.5 83.5Z" fill="white" stroke="black" stroke-width="3"/>
    <rect x="45" y="46" width="8" height="24" fill="white"/>
    <rect x="36" y="62" width="26" height="7" fill="white"/>
    <g filter="url(#filter0_b_1_31)">
      <path d="M44 77.1964C45.5 74.0297 49.5 69.5964 53.5 77.1964" stroke="black" stroke-width="2" stroke-linecap="round" stroke-linejoin="round"/>
    </g>
    <path d="M49 82V86" stroke="black" stroke-width="2" stroke-linecap="round"/>
    <path d="M42.5 84.5C44.6667 86.8333 50.2 90.1 55 84.5" stroke="black" stroke-width="2" stroke-linecap="round" stroke-linejoin="round"/>
    <path d="M11.5 51C11.5 53.5141 10.8348 55.7209 9.83853 57.2536C8.83302 58.8005 7.61942 59.5 6.5 59.5C5.38058 59.5 4.16698 58.8005 3.16147 57.2536C2.16521 55.7209 1.5 53.5141 1.5 51C1.5 48.4859 2.16521 46.2791 3.16147 44.7464C4.16698 43.1995 5.38058 42.5 6.5 42.5C7.61942 42.5 8.83302 43.1995 9.83853 44.7464C10.8348 46.2791 11.5 48.4859 11.5 51Z" fill="white" stroke="black" stroke-width="3"/>
    <path d="M97.5 51C97.5 53.5141 96.8348 55.7209 95.8385 57.2536C94.833 58.8005 93.6194 59.5 92.5 59.5C91.3806 59.5 90.167 58.8005 89.1615 57.2536C88.1652 55.7209 87.5 53.5141 87.5 51C87.5 48.4859 88.1652 46.2791 89.1615 44.7464C90.167 43.1995 91.3806 42.5 92.5 42.5C93.6194 42.5 94.833 43.1995 95.8385 44.7464C96.8348 46.2791 97.5 48.4859 97.5 51Z" fill="white" stroke="black" stroke-width="3"/>
    <path d="M45 34C45.6667 29.4723 47.5 23.1334 49.5 34C50.3333 29.4723 52.4 23.1334 54 34" stroke="black" stroke-width="2" stroke-linecap="round" stroke-linejoin="round"/>
  </g>
  <defs>
    <filter id="filter0_b_1_31" x="38.9998" y="68" width="19.5004" height="14.1966" filterUnits="userSpaceOnUse" color-interpolation-filters="sRGB">
      <feFlood flood-opacity="0" result="BackgroundImageFix"/>
      <feGaussianBlur in="BackgroundImageFix" stdDeviation="2"/>
      <feComposite in2="SourceAlpha" operator="in" result="effect1_backgroundBlur_1_31"/>
      <feBlend mode="normal" in="SourceGraphic" in2="effect1_backgroundBlur_1_31" result="shape"/>
    </filter>
    <clipPath id="clip0_1_31">
      <rect width="99" height="104" fill="white"/>
    </clipPath>
  </defs>
</svg>
